<?xml version="1.0" encoding="utf-8"?>
<!-- Generator: Adobe Illustrator 21.0.0, SVG Export Plug-In . SVG Version: 6.00 Build 0)  -->
<svg version="1.1" id="Layer_1" xmlns="http://www.w3.org/2000/svg" xmlns:xlink="http://www.w3.org/1999/xlink" x="0px" y="0px"
	 viewBox="0 0 228.7 39.1" style="enable-background:new 0 0 228.7 39.1;" xml:space="preserve">
<style type="text/css">
	.st0{fill:#FED136;}
</style>
<path class="st0" d="M31.7,20.9c0.6-0.5,1.9-1.7,4-3.5c1.8-1.6,4.6-3.9,8.5-6.9c2.3-1.7,4.3-3.2,6.1-4.4c1.1-0.7,2.1-1.1,2.9-1.1
	c0.5,0,0.9,0.1,1.2,0.3c0.3,0.2,0.4,0.4,0.4,0.6c0,0.4-0.4,0.9-1.1,1.7c-0.1,0.2-0.9,0.9-2.2,2.3c-2.4,2.4-4,4.2-4.8,5.2
	c-2.3,2.9-4,5.3-5.1,7.3c-0.6,1.2-0.9,2.1-0.9,2.6c0,0.1,0,0.3,0.1,0.4c0.1,0.4,0.1,0.6,0.1,0.7c0,0.3-0.2,0.6-0.6,0.8
	c-0.3,0.2-0.7,0.4-1.2,0.4c-0.5,0-0.9-0.2-1.2-0.5c-0.3-0.3-0.4-0.6-0.4-1.1c0-2.9,4.2-8.7,12.7-17.4c-4.4,2.8-9.3,6.7-14.7,11.8
	c-1.2,1.1-2.2,1.9-2.9,2.3c-0.8,0.4-1.5,0.6-2.1,0.6s-1.2-0.2-1.5-0.5c-0.2-0.2-0.3-0.5-0.3-0.8c0-2.6,2.7-6.7,8-12.3
	c-1.8,1.1-3.5,2.3-5.2,3.7c-3,2.6-5.7,5.3-8.1,8c-1.1,1.3-2.5,3.1-4.1,5.3c-0.8,1.1-1.7,1.7-2.8,1.7c-0.3,0-0.5-0.1-0.7-0.2
	c-0.1-0.1-0.2-0.2-0.2-0.3c0-0.2,0.3-0.7,1-1.6c1.4-1.9,2.5-3.3,3.3-4.2c3.9-4.4,8.4-8.5,13.7-12.3c2.2-1.6,3.7-2.6,4.6-3.1
	c0.9-0.5,1.6-0.7,2.2-0.7c0.4,0,0.7,0.1,1,0.3c0.4,0.2,0.6,0.5,0.6,0.8c0,0.3-0.4,0.8-1.1,1.5c-2.1,2-4.1,4.3-5.9,6.9
	C33.2,17.4,32.2,19.4,31.7,20.9z"/>
<path class="st0" d="M57.9,21.4c-1.6,1.1-2.9,1.9-3.8,2.4c-1.9,1-3.4,1.6-4.7,1.6c-0.6,0-1.1-0.1-1.5-0.4c-0.3-0.2-0.4-0.5-0.4-0.8
	c0-1.1,1.1-2.6,3.4-4.5c2.3-1.9,4-2.8,5.1-2.8c0.3,0,0.5,0.1,0.8,0.2c0.2,0.1,0.3,0.3,0.3,0.4c0,0.2-0.1,0.4-0.3,0.6
	s-0.8,0.6-1.8,1.1c-1,0.6-2,1.3-2.8,2c-1,0.8-1.5,1.4-1.5,1.8c0,0.2,0.2,0.3,0.5,0.3c0.7,0,2.1-0.6,4-1.7c1.2-0.7,2.2-1.3,2.9-1.8
	c0.1-0.1,0.8-0.6,1.9-1.5c1-0.8,1.6-1.2,1.9-1.4c0.5-0.4,1-0.5,1.5-0.5c0.3,0,0.5,0.1,0.8,0.2c0.2,0.1,0.3,0.3,0.3,0.5
	c0,0.3-0.4,0.8-1.1,1.5c-0.9,0.9-1.6,1.7-2.4,2.4c-1.1,1.2-2,2.2-2.6,3.1c1.1-0.4,2.2-0.9,3.1-1.4c1.6-0.9,2.6-1.6,3-2.1
	c0.3-0.4,0.7-0.6,1-0.6c0.5,0,0.8,0.1,0.8,0.4c0,0.6-0.8,1.4-2.4,2.5c-1.9,1.3-4.3,2.4-7.1,3.3c-1.5,2.1-2.9,3.8-4.3,5.2
	c-2.5,2.6-5.1,3.8-7.8,3.8c-1.1,0-2-0.2-2.6-0.7c-0.5-0.4-0.8-0.8-0.8-1.4c0-1.6,2-3.3,5.9-5c1.1-0.5,2.8-1.1,5.1-1.9
	c0.9-0.3,1.6-0.5,2.1-0.7c0.3-0.5,0.8-1.1,1.5-1.9C56.7,22.9,57.3,22.1,57.9,21.4z M52.9,27.6C51,28.1,49.1,29,47.1,30
	c-2,1.1-3,2.1-3,3c0,0.2,0.1,0.4,0.3,0.5c0.3,0.2,0.6,0.3,1,0.3c1.3,0,2.8-0.8,4.5-2.5c0.3-0.3,1-1.2,2.2-2.7
	C52.3,28.3,52.6,28,52.9,27.6z"/>
<path class="st0" d="M91.2,18.4l-0.4,0.5c-1.9,2.3-3.1,3.9-3.7,4.8c-1,1.5-1.5,2.4-1.6,2.6c-0.4,0.7-0.9,1-1.5,1
	c-0.4,0-0.8-0.1-1.1-0.3c-0.3-0.2-0.4-0.4-0.4-0.6c0-0.9,2-3.7,5.9-8.5c-0.7-0.3-1.1-0.6-1.1-0.9c0-0.2,0.2-0.4,0.5-0.6
	c0.3-0.1,0.6-0.2,1-0.2c0.3,0,0.6,0,1,0.1c2.9-3.2,4.6-5.3,5.1-6.2c-0.4,0.1-1,0.4-1.7,0.6c-0.4,0.1-0.7,0.2-1,0.2
	c-0.3,0-0.6-0.1-0.8-0.3c-0.1-0.1-0.2-0.3-0.2-0.4c0-0.5,0.7-1,2.2-1.6c1.2-0.4,2.2-0.8,3.3-1.1c0.2-0.3,0.3-0.4,0.3-0.5
	c0.2-0.4,0.4-0.7,0.6-0.8c0.2-0.1,0.5-0.2,0.9-0.2c0.8,0,1.3,0.3,1.3,0.8c1.2-0.2,2.3-0.4,3.3-0.5c0.9-0.1,1.8-0.2,2.4-0.2
	c1.7,0,3.2,0.4,4.4,1.2c1.1,0.7,1.7,1.5,1.7,2.5c0,1.6-1.1,3.1-3.4,4.7c-1.9,1.3-4.3,2.4-7.2,3.1c-2.5,0.6-4.9,1-7.4,1
	C92.8,18.5,92,18.4,91.2,18.4z M98.7,8.8c-0.6,1-1.6,2.4-2.9,4c-1.6,2-2.7,3.2-3.2,3.8c1,0.1,1.7,0.2,2.1,0.2c2,0,4.4-0.5,7.1-1.4
	c2.6-0.9,4.7-2.1,6.2-3.5c0.9-0.8,1.4-1.6,1.4-2.3c0-0.6-0.3-1-1-1.3c-0.7-0.3-1.7-0.4-3.1-0.4c-1.1,0-2.1,0.1-3.2,0.2
	C100.9,8.2,99.8,8.5,98.7,8.8z"/>
<path class="st0" d="M115.1,15.7c1.5,0,2.2,0.5,2.2,1.6c0,1.4-1.1,3.1-3.3,5.3c-2.4,2.3-4.7,3.5-7,3.5c-1,0-1.8-0.3-2.3-0.8
	c-0.3-0.3-0.4-0.6-0.4-1c0-1.3,0.8-2.8,2.4-4.3c1.5-1.4,3.2-2.6,5.2-3.4C113.1,16,114.2,15.7,115.1,15.7z M112.3,21.6
	c-0.4-0.2-0.7-0.4-0.7-0.5c0-0.1,0.3-0.3,0.9-0.7c1.6-1.1,2.4-1.9,2.4-2.5c0-0.1,0-0.2-0.1-0.3c-0.1-0.2-0.4-0.2-0.7-0.2
	c-0.6,0-1.4,0.3-2.5,1c-1.4,0.8-2.5,1.7-3.3,2.6c-0.9,1-1.3,1.8-1.3,2.5c0,0.2,0.1,0.3,0.2,0.5c0.2,0.2,0.5,0.3,0.9,0.3
	c0.9,0,1.8-0.4,2.8-1.1c0.4-0.3,0.8-0.6,1-1C112.2,21.8,112.3,21.7,112.3,21.6z"/>
<path class="st0" d="M122.4,20.7c1.8-1.1,3.8-2.2,6.1-3.2c0.8-0.4,1.7-0.7,2.6-1c0.5-0.2,0.8-0.2,0.9-0.2c0.3,0,0.5,0.1,0.8,0.3
	c0.2,0.1,0.2,0.2,0.2,0.3c0,0.2-0.3,0.4-1,0.8c-1.8,0.8-2.7,1.5-2.7,1.9c0,0.2,0.2,0.4,0.7,0.4c0.8,0,2.1-0.4,4-1.1
	c0.3-0.1,0.6-0.2,0.8-0.2c0.1,0,0.3,0,0.4,0.1c0.2,0.1,0.2,0.2,0.2,0.3c0,0.3-0.8,0.8-2.3,1.4c-1.6,0.7-3.1,1-4.5,1
	c-0.6,0-1.1-0.1-1.6-0.3c-0.4-0.1-0.6-0.4-0.6-0.8c0-0.3,0.2-0.6,0.6-0.9c-1.4,0.6-3.1,1.6-5,3c-1.1,0.9-2.2,2-3.3,3.2
	c-0.4,0.5-0.9,0.7-1.5,0.7c-0.7,0-1-0.2-1-0.5c0-0.4,0.5-1.3,1.6-2.8c1.5-2.3,3.2-4.1,4.8-5.3c1-0.8,1.9-1.2,2.6-1.2
	c0.2,0,0.4,0,0.6,0.1c0.2,0.1,0.3,0.2,0.3,0.4s-0.2,0.4-0.5,0.7c-0.1,0.1-0.5,0.4-1.4,1C123.5,19.5,122.8,20.1,122.4,20.7z"/>
<path class="st0" d="M144.2,15.8c-1.2,1.1-2.2,2.2-3.2,3.5c-1.4,1.9-2.1,3.2-2.1,4.2c0,0.3,0.1,0.5,0.3,0.6s0.5,0.2,0.8,0.2
	c0.9,0,2-0.5,3.3-1.5c0.8-0.6,1.5-1.2,2.2-1.8c0.3-0.3,0.7-0.5,1.1-0.5c0.2,0,0.4,0,0.6,0.1c0.1,0.1,0.2,0.2,0.2,0.3
	c0,0.4-0.9,1.2-2.6,2.6c-2.1,1.6-4,2.4-5.7,2.4c-0.9,0-1.7-0.2-2.3-0.7c-0.4-0.3-0.6-0.8-0.6-1.3c0-1.3,0.6-2.7,1.9-4.4
	c0.3-0.4,1.1-1.4,2.5-3c-0.5,0.1-0.9,0.1-1.1,0.1c-0.4,0-0.7-0.1-1-0.2c-0.4-0.1-0.6-0.3-0.6-0.5c0-0.3,0.3-0.5,0.8-0.6
	c0.1,0,0.8-0.1,2-0.2c0.4,0,1.1-0.1,1.9-0.3c0.6-0.7,1.6-1.5,3.1-2.7c0.8-0.6,1.3-1,1.6-1.2c0.4-0.3,0.8-0.4,1.1-0.4
	c0.2,0,0.5,0.1,0.7,0.2c0.2,0.1,0.3,0.3,0.3,0.4c0,0.3-0.5,0.8-1.5,1.6c-0.7,0.5-1.2,0.9-1.5,1.3c2-0.3,3.4-0.5,4.3-0.5
	c1,0,1.5,0.2,1.5,0.7c0,0.2-0.2,0.4-0.5,0.5c-0.2,0.1-0.6,0.1-1.4,0.2c-0.3,0-1.7,0.2-4.1,0.6C145.5,15.5,144.8,15.6,144.2,15.8z"/>
<path class="st0" d="M152.2,18.4c2.7-3.4,5.4-6.2,8-8.4c1.8-1.5,3.2-2.5,4.4-3.2c0.8-0.5,1.5-0.7,2.1-0.7c0.2,0,0.4,0,0.6,0.1
	c0.3,0.1,0.4,0.2,0.4,0.4c0,0.2-0.3,0.6-0.9,1c-4,2.6-7.5,5.8-10.7,9.4c2.9-0.6,4.9-1,6-1c0.8,0,1.5,0.1,2,0.4
	c0.6,0.3,0.8,0.5,0.8,0.9c0,0.2-0.1,0.3-0.3,0.5c-0.3,0.2-0.6,0.3-1,0.3c-0.3,0-0.9-0.1-1.8-0.4c-0.3-0.1-0.6-0.1-1-0.1
	c-1.8,0-3.9,0.5-6.4,1.4c1.1,0.3,1.8,0.7,2.3,1.2c0.6,0.7,0.9,1.5,0.9,2.5c0,2.6-1.3,5.2-3.9,8.1c-1.1,1.2-2.2,2.1-3.3,2.8
	c-1.1,0.7-2.3,1-3.5,1c-0.9,0-1.6-0.3-2.2-0.8c-0.4-0.4-0.7-1-0.7-1.7c0-1.5,1-3.9,3-7c0.3-0.4,1-1.3,2.2-2.9
	c0.3-0.4,0.6-0.8,0.9-1.2c-0.1,0-0.3,0-0.4,0c-0.5,0-0.7-0.2-0.7-0.5C148.9,20,150,19.3,152.2,18.4z M153.1,20.5
	c-1,1.1-2.3,2.9-4,5.3c-1.7,2.5-2.6,4.5-2.6,5.8c0,0.3,0.1,0.5,0.3,0.7c0.3,0.2,0.5,0.3,0.9,0.3c1.1,0,2.6-1.1,4.4-3.3
	c2-2.4,3.1-4.6,3.1-6.6c0-0.8-0.3-1.4-0.8-1.8C154.3,20.9,153.8,20.7,153.1,20.5z"/>
<path class="st0" d="M172.2,15.7c1.5,0,2.2,0.5,2.2,1.6c0,1.4-1.1,3.1-3.3,5.3c-2.4,2.3-4.7,3.5-7,3.5c-1,0-1.8-0.3-2.3-0.8
	c-0.3-0.3-0.4-0.6-0.4-1c0-1.3,0.8-2.8,2.4-4.3c1.5-1.4,3.2-2.6,5.2-3.4C170.2,16,171.2,15.7,172.2,15.7z M169.4,21.6
	c-0.4-0.2-0.7-0.4-0.7-0.5c0-0.1,0.3-0.3,0.9-0.7c1.6-1.1,2.4-1.9,2.4-2.5c0-0.1,0-0.2-0.1-0.3c-0.1-0.2-0.4-0.2-0.7-0.2
	c-0.6,0-1.4,0.3-2.5,1c-1.4,0.8-2.5,1.7-3.3,2.6c-0.9,1-1.3,1.8-1.3,2.5c0,0.2,0.1,0.3,0.2,0.5c0.2,0.2,0.5,0.3,0.9,0.3
	c0.9,0,1.8-0.4,2.8-1.1c0.4-0.3,0.8-0.6,1-1C169.3,21.8,169.4,21.7,169.4,21.6z"/>
<path class="st0" d="M179,20.6c-0.5,0.8-0.9,1.5-1.2,2s-0.4,0.8-0.4,1c0,0.3,0.2,0.4,0.6,0.4c0.6,0,1.5-0.4,2.5-1.1
	c0.5-0.3,1.2-1,2.2-1.9c0.4-0.4,0.8-0.5,1.2-0.5c0.5,0,0.7,0.1,0.7,0.4c0,0.4-0.9,1.4-2.7,2.7c-1.8,1.4-3.6,2.1-5.1,2.1
	c-0.7,0-1.2-0.2-1.7-0.5c-0.3-0.2-0.5-0.5-0.5-0.9c0-0.6,0.3-1.4,0.9-2.4c0.6-1,1.5-2.3,2.7-3.8c3.1-3.8,6.2-6.9,9.4-9.3
	c2.6-2,4.7-2.9,6.4-2.9c0.5,0,1,0.1,1.3,0.4c0.4,0.2,0.5,0.5,0.5,0.8c0,1.5-2.2,3.9-6.7,7.3c-2,1.5-4.4,3-7.2,4.5
	C181.3,19.4,180.3,20,179,20.6z M180.9,18.1c3.7-1.9,7.1-4.2,10-7c1.5-1.5,2.3-2.4,2.3-2.9c0-0.2-0.2-0.3-0.5-0.3
	c-1,0-2.8,1.1-5.4,3.4C185.1,13.1,183,15.4,180.9,18.1z"/>
<path class="st0" d="M193.4,16.5c0.3,0,0.6,0.1,0.8,0.2c0.1,0.1,0.2,0.2,0.2,0.3c0,0.2-0.3,0.5-0.8,0.9c-1.9,1.7-3.2,3.1-4,4.1
	c-0.8,1.1-1.6,2.3-2.2,3.4c-0.3,0.5-0.7,0.8-1.3,0.8c-0.4,0-0.6-0.1-0.9-0.3c-0.2-0.1-0.3-0.3-0.3-0.4c0-0.3,0.6-1.4,1.7-3.1
	c0.9-1.4,2.3-2.9,4.4-4.6c0.6-0.6,1.1-0.9,1.5-1.1C192.8,16.6,193.1,16.5,193.4,16.5z M198.6,10.7c0.8,0,1.2,0.2,1.2,0.7
	c0,0.4-0.4,0.9-1.2,1.5c-0.8,0.5-1.5,0.8-2.2,0.8c-0.3,0-0.6-0.1-0.8-0.2c-0.2-0.1-0.3-0.3-0.3-0.5c0-0.5,0.5-1,1.4-1.6
	C197.4,10.9,198,10.7,198.6,10.7z"/>
<path class="st0" d="M204,15.7c1.5,0,2.2,0.5,2.2,1.6c0,1.4-1.1,3.1-3.3,5.3c-2.4,2.3-4.7,3.5-7,3.5c-1,0-1.8-0.3-2.3-0.8
	c-0.3-0.3-0.4-0.6-0.4-1c0-1.3,0.8-2.8,2.4-4.3c1.5-1.4,3.2-2.6,5.2-3.4C202,16,203.1,15.7,204,15.7z M201.2,21.6
	c-0.4-0.2-0.7-0.4-0.7-0.5c0-0.1,0.3-0.3,0.9-0.7c1.6-1.1,2.4-1.9,2.4-2.5c0-0.1,0-0.2-0.1-0.3c-0.1-0.2-0.4-0.2-0.7-0.2
	c-0.6,0-1.4,0.3-2.5,1c-1.4,0.8-2.5,1.7-3.3,2.6c-0.9,1-1.3,1.8-1.3,2.5c0,0.2,0.1,0.3,0.2,0.5c0.2,0.2,0.5,0.3,0.9,0.3
	c0.9,0,1.8-0.4,2.8-1.1c0.4-0.3,0.8-0.6,1-1C201.1,21.8,201.3,21.7,201.2,21.6z"/>
</svg>
